HIERARCHY
ROOT joint_Root
{
	OFFSET 0.0 0.0 0.0
	CHANNELS 6 Xposition Yposition Zposition Zrotation Xrotation Yrotation 
	JOINT Hips
	{
		OFFSET -0.726466 93.3139 -2.00062
		CHANNELS 6 Xposition Yposition Zposition Zrotation Xrotation Yrotation 
		JOINT Spine
		{
			OFFSET 15.7357 0.0 0.0
			CHANNELS 6 Xposition Yposition Zposition Zrotation Xrotation Yrotation 
			JOINT Chest
			{
				OFFSET 8.98455 -0.406207 0.0
				CHANNELS 6 Xposition Yposition Zposition Zrotation Xrotation Yrotation 
				JOINT Neck
				{
					OFFSET 16.3773 0.0 0.0
					CHANNELS 6 Xposition Yposition Zposition Zrotation Xrotation Yrotation 
					JOINT Head
					{
						OFFSET 6.45672 0.0 0.0
						CHANNELS 6 Xposition Yposition Zposition Zrotation Xrotation Yrotation 
						End Site
						{
							OFFSET 0.0 0.0 0.0
						}
					}
				}
				JOINT Shoulder_L
				{
					OFFSET 12.9942 -0.242716 4.98039
					CHANNELS 6 Xposition Yposition Zposition Zrotation Xrotation Yrotation 
					JOINT UpperArm_L
					{
						OFFSET 5.34809 0.0 0.0
						CHANNELS 6 Xposition Yposition Zposition Zrotation Xrotation Yrotation 
						JOINT LowerArm_L
						{
							OFFSET 24.3286 1.87007e-05 0.0
							CHANNELS 6 Xposition Yposition Zposition Zrotation Xrotation Yrotation 
							JOINT Hand_L
							{
								OFFSET 22.2916 0.0 0.0
								CHANNELS 6 Xposition Yposition Zposition Zrotation Xrotation Yrotation 
								End Site
								{
									OFFSET 0.0 0.0 0.0
								}
							}
						}
					}
				}
				JOINT Shoulder_R
				{
					OFFSET 12.9945 -0.242716 -4.98039
					CHANNELS 6 Xposition Yposition Zposition Zrotation Xrotation Yrotation 
					JOINT UpperArm_R
					{
						OFFSET -5.34813 0.0 0.0
						CHANNELS 6 Xposition Yposition Zposition Zrotation Xrotation Yrotation 
						JOINT LowerArm_R
						{
							OFFSET -24.3289 0.000322201 0.0
							CHANNELS 6 Xposition Yposition Zposition Zrotation Xrotation Yrotation 
							JOINT Hand_R
							{
								OFFSET -22.2915 -0.000108084 0.0
								CHANNELS 6 Xposition Yposition Zposition Zrotation Xrotation Yrotation 
								End Site
								{
									OFFSET 0.0 0.0 0.0
								}
							}
						}
					}
				}
			}
		}
		JOINT UpperLeg_L
		{
			OFFSET -2.19248 -6.46944 0.0
			CHANNELS 6 Xposition Yposition Zposition Zrotation Xrotation Yrotation 
			JOINT LowerLeg_L
			{
				OFFSET 39.0811 0.0 -1.23785e-05
				CHANNELS 6 Xposition Yposition Zposition Zrotation Xrotation Yrotation 
				JOINT Foot_L
				{
					OFFSET 40.9854 0.0 -1.26872e-05
					CHANNELS 6 Xposition Yposition Zposition Zrotation Xrotation Yrotation 
					JOINT Toes_L
					{
						OFFSET 11.7543 0.0 0.0
						CHANNELS 6 Xposition Yposition Zposition Zrotation Xrotation Yrotation 
						End Site
						{
							OFFSET 0.0 0.0 0.0
						}
					}
				}
			}
		}
		JOINT UpperLeg_R
		{
			OFFSET -2.19251 6.46944 0.0
			CHANNELS 6 Xposition Yposition Zposition Zrotation Xrotation Yrotation 
			JOINT LowerLeg_R
			{
				OFFSET -39.0811 -0.00228153 -0.0401928
				CHANNELS 6 Xposition Yposition Zposition Zrotation Xrotation Yrotation 
				JOINT Foot_R
				{
					OFFSET -40.9854 0.0 0.0
					CHANNELS 6 Xposition Yposition Zposition Zrotation Xrotation Yrotation 
					JOINT Toes_R
					{
						OFFSET -11.7543 0.0 0.0
						CHANNELS 6 Xposition Yposition Zposition Zrotation Xrotation Yrotation 
						End Site
						{
							OFFSET 0.0 0.0 0.0
						}
					}
				}
			}
		}
	}
}
MOTION
Frames:	6
Frame Time:	0.0333333
0.000000 0.000000 0.000000 0.000000 0.000000 -0.000000 -0.972204 92.214500 -1.736780 87.604100 -2.267120 4.114210 15.735700 0.000005 -0.000001 85.504400 83.699500 -84.904600 8.984550 -0.406207 -0.000000 4.802250 -1.001320 1.240310 16.377300 -0.000001 -0.000001 -0.231753 -1.316330 0.930547 6.456720 -0.000001 -0.000000 -1.439450 -0.908288 0.338132 12.994200 -0.242716 4.980390 -89.288400 -2.157430 -71.742000 5.348090 -0.000007 -0.000001 -72.177600 25.397900 -9.107200 24.328600 0.000019 0.000005 0.936597 2.158350 -23.467900 22.291600 -0.000001 0.000005 10.982100 5.644530 -14.511200 12.994500 -0.242716 -4.980390 88.542000 4.896070 -73.394300 -5.348130 -0.000001 -0.000004 -66.185300 21.107300 -15.593400 -24.328900 0.000322 -0.000009 -1.668680 -6.008070 -15.538700 -22.291500 -0.000108 -0.000004 13.240800 5.583310 -10.394800 -2.192480 -6.469440 -0.000000 -169.620000 -20.919200 -3.213800 39.081100 -0.000007 -0.000012 -0.133003 0.314797 22.904400 40.985400 -0.000006 -0.000013 -5.114910 0.103855 -63.255100 11.754300 -0.000000 0.000003 -0.000156 -0.001500 -16.634500 -2.192510 6.469440 -0.000001 175.035000 24.028400 178.732000 -39.081100 -0.002282 -0.040193 0.028937 -0.068445 20.518800 -40.985400 0.000008 0.000006 0.091018 5.045600 -62.950000 -11.754300 -0.000006 -0.000006 -0.003438 -0.045459 -18.422000
0.000000 0.000000 0.000000 0.000000 0.000000 -0.000000 -0.915028 92.198000 -1.648380 87.659400 -2.146070 4.132860 15.735700 0.000005 -0.000001 85.640300 83.903500 -85.040600 8.984550 -0.406207 -0.000000 4.397430 -0.942968 1.234150 16.377300 -0.000001 -0.000001 -0.440006 -1.291300 0.969394 6.456720 -0.000001 -0.000000 -1.467430 -0.947199 0.469249 12.994200 -0.242716 4.980390 -89.108100 -2.617740 -71.177400 5.348090 -0.000007 -0.000001 -68.830900 18.896200 -9.781900 24.328600 0.000019 0.000005 1.586210 4.126300 -21.056400 22.291600 -0.000001 0.000005 13.542500 5.644220 -14.490100 12.994500 -0.242716 -4.980390 88.770900 3.977640 -72.813000 -5.348130 -0.000001 -0.000004 -62.620100 14.451800 -16.926100 -24.328900 0.000322 -0.000009 -0.712562 -3.167630 -12.656100 -22.291500 -0.000108 -0.000004 15.869000 5.574240 -9.913110 -2.192480 -6.469440 -0.000000 -169.715000 -20.844700 -3.211550 39.081100 -0.000007 -0.000012 -0.130566 0.307672 22.994900 40.985400 -0.000006 -0.000013 -5.079690 0.121599 -63.359100 11.754300 -0.000000 0.000003 -0.000165 -0.001576 -16.637300 -2.192510 6.469440 -0.000001 174.904000 23.990600 178.824000 -39.081100 -0.002282 -0.040193 0.029343 -0.069408 20.552500 -40.985400 0.000008 0.000006 -0.010110 4.928720 -63.061800 -11.754300 -0.000006 -0.000006 -0.003508 -0.046218 -18.452900
0.000000 0.000000 0.000000 0.000000 0.000000 -0.000000 -0.891999 92.183600 -1.579750 87.702600 -1.921420 4.198740 15.735700 0.000005 -0.000001 85.566300 84.092900 -84.970000 8.984550 -0.406207 -0.000000 4.018440 -0.931446 1.224100 16.377300 -0.000001 -0.000001 -0.574595 -1.187580 0.936598 6.456720 -0.000001 -0.000000 -1.475870 -0.970692 0.648983 12.994200 -0.242716 4.980390 -88.865400 -3.210320 -70.524000 5.348090 -0.000007 -0.000001 -64.024000 10.389700 -11.459500 24.328600 0.000019 0.000005 1.974510 5.628350 -19.367100 22.291600 -0.000001 0.000005 15.416200 5.644040 -14.470900 12.994500 -0.242716 -4.980390 89.101500 2.807590 -72.244300 -5.348130 -0.000001 -0.000004 -58.058600 6.497230 -18.908900 -24.328900 0.000322 -0.000009 -0.200785 -1.072140 -10.546800 -22.291500 -0.000108 -0.000004 17.967500 5.557650 -9.079680 -2.192480 -6.469440 -0.000000 -169.749000 -20.717400 -3.167530 39.081100 -0.000007 -0.000012 -0.132086 0.310415 23.050600 40.985400 -0.000006 -0.000013 -5.052940 0.251381 -63.418900 11.754300 -0.000000 0.000003 -0.000149 -0.001442 -16.632400 -2.192510 6.469440 -0.000001 174.795000 23.986900 178.974000 -39.081100 -0.002282 -0.040193 0.029942 -0.070941 20.569400 -40.985400 0.000008 0.000006 -0.025185 4.708530 -63.198200 -11.754300 -0.000006 -0.000006 -0.003672 -0.047981 -18.524700
0.000000 0.000000 0.000000 0.000000 0.000000 -0.000000 -0.879720 92.181900 -1.501950 87.751100 -1.658860 4.265600 15.735700 0.000005 -0.000001 85.490700 84.310700 -84.906700 8.984550 -0.406207 -0.000000 3.582740 -0.914784 1.195400 16.377300 -0.000001 -0.000001 -0.632206 -1.114070 0.927899 6.456720 -0.000001 -0.000000 -1.374680 -0.934434 0.687915 12.994200 -0.242716 4.980390 -88.659900 -3.681680 -69.982600 5.348090 -0.000007 -0.000001 -58.948300 -1.300540 -13.094300 24.328600 0.000019 0.000005 1.744880 4.724350 -20.299000 22.291600 -0.000001 0.000005 16.832100 5.642870 -14.365800 12.994500 -0.242716 -4.980390 89.431800 1.709560 -71.608100 -5.348130 -0.000001 -0.000004 -52.980600 -3.176540 -21.048700 -24.328900 0.000322 -0.000009 0.058511 0.325482 -10.352100 -22.291500 -0.000108 -0.000004 19.368800 5.539940 -8.240820 -2.192480 -6.469440 -0.000000 -169.778000 -20.647700 -3.076610 39.081100 -0.000007 -0.000012 -0.131765 0.310261 23.010600 40.985400 -0.000006 -0.000013 -5.017790 0.433644 -63.420900 11.754300 -0.000000 0.000003 -0.000150 -0.001450 -16.632700 -2.192510 6.469440 -0.000001 174.665000 24.074300 179.174000 -39.081100 -0.002282 -0.040193 0.028978 -0.068515 20.530000 -40.985400 0.000008 0.000006 -0.134257 4.581500 -63.253300 -11.754300 -0.000006 -0.000006 -0.003510 -0.046238 -18.453700
0.000000 0.000000 0.000000 0.000000 0.000000 -0.000000 -0.872375 92.191500 -1.384880 87.770400 -1.427480 4.207020 15.735700 0.000005 -0.000001 85.178000 84.599300 -84.584400 8.984550 -0.406207 -0.000000 3.002640 -0.931726 1.210400 16.377300 -0.000001 -0.000001 -0.537158 -0.966868 0.926433 6.456720 -0.000001 -0.000000 -1.227060 -0.763628 0.570741 12.994200 -0.242716 4.980390 -88.403600 -4.294750 -69.587000 5.348090 -0.000007 -0.000001 -53.781800 -13.051000 -15.217500 24.328600 0.000019 0.000005 1.473150 3.496750 -22.871300 22.291600 -0.000001 0.000005 17.766600 5.644660 -14.526500 12.994500 -0.242716 -4.980390 89.818300 0.527879 -70.999500 -5.348130 -0.000001 -0.000004 -47.938400 -13.469000 -23.577600 -24.328900 0.000322 -0.000009 0.301736 1.405950 -12.152900 -22.291500 -0.000108 -0.000004 19.372600 5.531850 -7.875830 -2.192480 -6.469440 -0.000000 -169.811000 -20.568100 -3.047040 39.081100 -0.000007 -0.000012 -0.132007 0.312644 22.890900 40.985400 -0.000006 -0.000013 -5.006310 0.575753 -63.410100 11.754300 -0.000000 0.000003 -0.000160 -0.001532 -16.635700 -2.192510 6.469440 -0.000001 174.630000 24.080100 179.290000 -39.081100 -0.002282 -0.040193 0.027575 -0.065226 20.397700 -40.985400 0.000008 0.000006 -0.289258 4.380660 -63.238700 -11.754300 -0.000006 -0.000006 -0.003424 -0.045310 -18.415900
0.000000 0.000000 0.000000 0.000000 0.000000 -0.000000 -0.887170 92.202100 -1.234970 87.811900 -1.197080 4.122980 15.735700 0.000005 -0.000001 84.431700 84.918100 -83.831500 8.984550 -0.406207 -0.000000 2.355820 -1.013790 1.220180 16.377300 -0.000001 -0.000001 -0.320936 -0.853940 0.864587 6.456720 -0.000001 -0.000000 -1.012790 -0.541159 0.530967 12.994200 -0.242716 4.980390 -88.090400 -5.084640 -69.384100 5.348090 -0.000007 -0.000001 -48.423300 -22.848400 -17.703500 24.328600 0.000019 0.000005 0.417340 0.854887 -26.055500 22.291600 -0.000001 0.000005 18.020300 5.642040 -14.296700 12.994500 -0.242716 -4.980390 90.245800 -0.695014 -70.529400 -5.348130 -0.000001 -0.000004 -43.082200 -22.807400 -26.505000 -24.328900 0.000322 -0.000009 0.223548 0.823019 -15.276800 -22.291500 -0.000108 -0.000004 19.402000 5.529770 -7.784520 -2.192480 -6.469440 -0.000000 -169.868000 -20.416400 -2.989180 39.081100 -0.000007 -0.000012 -0.131045 0.312994 22.718300 40.985400 -0.000006 -0.000013 -5.032280 0.628615 -63.404700 11.754300 -0.000000 0.000003 -0.000158 -0.001520 -16.635300 -2.192510 6.469440 -0.000001 174.602000 24.053300 179.417000 -39.081100 -0.002282 -0.040193 0.028194 -0.067405 20.254800 -40.985400 0.000008 0.000006 -0.273384 4.126200 -63.310600 -11.754300 -0.000006 -0.000006 -0.003410 -0.045157 -18.409700
